<?xml version="1.0" encoding="iso-8859-1"?>
<!-- Generator: Adobe Illustrator 19.0.0, SVG Export Plug-In . SVG Version: 6.00 Build 0)  -->
<svg version="1.1" id="Layer_1" xmlns="http://www.w3.org/2000/svg" xmlns:xlink="http://www.w3.org/1999/xlink" x="0px" y="0px"
	 viewBox="0 0 512.002 512.002" style="enable-background:new 0 0 512.002 512.002;" xml:space="preserve">
<circle style="fill:#31BAFD;" cx="256.001" cy="256" r="256"/>
<path style="fill:#2B9ED8;" d="M512.001,256c0-4.763-0.141-9.492-0.397-14.189L390.672,120.879l-33.918,46.914h-85.045
	l-14.882-14.882l-10.254,18.765l-18.765-18.765l-10.374,18.646l-18.646-18.646l-8.251,14.812l-45.249-45.247l-14.676,83.23
	l-10.188,184.72L241.589,511.59c4.772,0.265,9.575,0.412,14.412,0.412C397.385,512,512.001,397.384,512.001,256z"/>
<rect x="135.621" y="161.754" style="fill:#FFC61B;" width="240.778" height="12.067"/>
<rect x="257.156" y="161.754" style="fill:#F4A200;" width="119.243" height="12.067"/>
<rect x="135.621" y="221.712" style="fill:#FFC61B;" width="240.778" height="12.067"/>
<rect x="257.156" y="221.712" style="fill:#F4A200;" width="119.243" height="12.067"/>
<rect x="135.621" y="281.669" style="fill:#FFC61B;" width="240.778" height="12.067"/>
<rect x="257.156" y="281.669" style="fill:#F4A200;" width="119.243" height="12.067"/>
<rect x="135.621" y="341.626" style="fill:#FFC61B;" width="240.778" height="12.067"/>
<rect x="257.156" y="341.626" style="fill:#F4A200;" width="119.243" height="12.067"/>
<path style="fill:#E6F3FF;" d="M132.362,394.774L132.362,394.774c-10.262,0-18.584-8.32-18.584-18.584V135.809
	c0-10.262,8.32-18.584,18.584-18.584l0,0c10.262,0,18.584,8.32,18.584,18.584v240.381
	C150.946,386.455,142.626,394.774,132.362,394.774z"/>
<path style="fill:#CFDBE6;" d="M132.362,117.226L132.362,117.226c10.262,0,18.584,8.32,18.584,18.584v240.381
	c0,10.262-8.32,18.584-18.584,18.584l0,0V117.226z"/>
<path style="fill:#E6F3FF;" d="M379.641,394.774L379.641,394.774c-10.262,0-18.584-8.32-18.584-18.584V135.809
	c0-10.262,8.32-18.584,18.584-18.584l0,0c10.262,0,18.584,8.32,18.584,18.584v240.381
	C398.225,386.455,389.904,394.774,379.641,394.774z"/>
<path style="fill:#CFDBE6;" d="M379.641,117.226L379.641,117.226c10.262,0,18.584,8.32,18.584,18.584v240.381
	c0,10.262-8.32,18.584-18.584,18.584l0,0V117.226z"/>
<path style="fill:#F4E3C3;" d="M194.157,185.177h-12.786c-3.61,0-6.537-2.927-6.537-6.537v-21.118c0-3.61,2.927-6.537,6.537-6.537
	h12.786c3.61,0,6.537,2.927,6.537,6.537v21.118C200.695,182.25,197.767,185.177,194.157,185.177z"/>
<path style="fill:#EA348B;" d="M223.176,185.177H210.39c-3.61,0-6.537-2.927-6.537-6.537v-21.118c0-3.61,2.927-6.537,6.537-6.537
	h12.786c3.61,0,6.537,2.927,6.537,6.537v21.118C229.713,182.25,226.786,185.177,223.176,185.177z"/>
<g>
	<path style="fill:#9B2F46;" d="M252.196,185.177H239.41c-3.61,0-6.537-2.927-6.537-6.537v-21.118c0-3.61,2.927-6.537,6.537-6.537
		h12.786c3.61,0,6.537,2.927,6.537,6.537v21.118C258.732,182.25,255.806,185.177,252.196,185.177z"/>
	<path style="fill:#9B2F46;" d="M282.077,245.226H269.29c-3.61,0-6.537-2.927-6.537-6.537v-21.118c0-3.61,2.927-6.537,6.537-6.537
		h12.786c3.61,0,6.537,2.927,6.537,6.537v21.118C288.614,242.298,285.687,245.226,282.077,245.226z"/>
</g>
<path style="fill:#EA348B;" d="M311.095,245.226h-12.786c-3.61,0-6.537-2.927-6.537-6.537v-21.118c0-3.61,2.927-6.537,6.537-6.537
	h12.786c3.61,0,6.537,2.927,6.537,6.537v21.118C317.632,242.298,314.705,245.226,311.095,245.226z"/>
<path style="fill:#FFDA44;" d="M340.115,245.226h-12.786c-3.61,0-6.537-2.927-6.537-6.537v-21.118c0-3.61,2.927-6.537,6.537-6.537
	h12.786c3.61,0,6.537,2.927,6.537,6.537v21.118C346.651,242.298,343.725,245.226,340.115,245.226z"/>
<path style="fill:#FED8B2;" d="M183.24,304.126h-12.786c-3.61,0-6.537-2.927-6.537-6.537v-21.118c0-3.61,2.927-6.537,6.537-6.537
	h12.786c3.61,0,6.537,2.927,6.537,6.537v21.118C189.775,301.199,186.85,304.126,183.24,304.126z"/>
<path style="fill:#FFD300;" d="M212.258,304.126h-12.786c-3.61,0-6.537-2.927-6.537-6.537v-21.118c0-3.61,2.927-6.537,6.537-6.537
	h12.786c3.61,0,6.537,2.927,6.537,6.537v21.118C218.796,301.199,215.868,304.126,212.258,304.126z"/>
<path style="fill:#9B2F46;" d="M308.223,364.463h-12.786c-3.61,0-6.537-2.927-6.537-6.537v-21.118c0-3.61,2.927-6.537,6.537-6.537
	h12.786c3.61,0,6.537,2.927,6.537,6.537v21.118C314.758,361.536,311.833,364.463,308.223,364.463z"/>
<path style="fill:#EA348B;" d="M337.242,364.463h-12.786c-3.61,0-6.537-2.927-6.537-6.537v-21.118c0-3.61,2.927-6.537,6.537-6.537
	h12.786c3.61,0,6.537,2.927,6.537,6.537v21.118C343.779,361.536,340.852,364.463,337.242,364.463z"/>
<path style="fill:#FFFFFF;" d="M241.277,304.126h-12.786c-3.61,0-6.537-2.927-6.537-6.537v-21.118c0-3.61,2.927-6.537,6.537-6.537
	h12.786c3.61,0,6.537,2.927,6.537,6.537v21.118C247.814,301.199,244.887,304.126,241.277,304.126z"/>
<g>
</g>
<g>
</g>
<g>
</g>
<g>
</g>
<g>
</g>
<g>
</g>
<g>
</g>
<g>
</g>
<g>
</g>
<g>
</g>
<g>
</g>
<g>
</g>
<g>
</g>
<g>
</g>
<g>
</g>
</svg>
