<?xml version="1.0" encoding="iso-8859-1"?>
<!-- Generator: Adobe Illustrator 19.0.0, SVG Export Plug-In . SVG Version: 6.00 Build 0)  -->
<svg version="1.1" id="Layer_1" xmlns="http://www.w3.org/2000/svg" xmlns:xlink="http://www.w3.org/1999/xlink" x="0px" y="0px"
	 viewBox="0 0 490 490" style="enable-background:new 0 0 490 490;" xml:space="preserve">
<g>
	<g id="XMLID_26_">
		<g>
			<polygon style="fill:#999999;" points="480,420 480,460 10,460 10,420 85.5,420 245.5,420 405.5,420 			"/>
			<polygon style="fill:#F4661E;" points="460.5,330 460.5,370 405.5,370 350.5,370 350.5,330 405.5,330 			"/>
			<polygon style="fill:#F4661E;" points="460.5,250 460.5,290 405.5,290 350.5,290 350.5,250 405.5,250 			"/>
			<polygon style="fill:#F4661E;" points="460.5,140 460.5,180 405.5,180 350.5,180 350.5,140 			"/>
			<polygon style="fill:#F4661E;" points="460.5,100 460.5,140 350.5,140 350.5,100 405.5,100 			"/>
			<polygon style="fill:#FFD248;" points="300.5,340 300.5,380 245.5,380 190.5,380 190.5,340 			"/>
			<polygon style="fill:#FFD248;" points="300.5,300 300.5,340 190.5,340 190.5,300 245.5,300 			"/>
			<polygon style="fill:#FFD248;" points="300.5,220 300.5,260 245.5,260 190.5,260 190.5,220 245.5,220 			"/>
			<polygon style="fill:#FFD248;" points="300.5,140 300.5,180 245.5,180 190.5,180 190.5,140 245.5,140 			"/>
			<polygon style="fill:#31C0D8;" points="140.5,310 140.5,350 85.5,350 30.5,350 30.5,310 			"/>
			<rect x="30.5" y="270" style="fill:#31C0D8;" width="110" height="40"/>
			<polygon style="fill:#31C0D8;" points="140.5,230 140.5,270 30.5,270 30.5,230 85.5,230 			"/>
			<polygon style="fill:#31C0D8;" points="140.5,100 140.5,140 85.5,140 30.5,140 30.5,100 85.5,100 			"/>
		</g>
		<path d="M480,410h-64.5v-30h45c5.523,0,10-4.477,10-10v-40c0-5.523-4.477-10-10-10h-45v-20h45c5.523,0,10-4.477,10-10v-40
			c0-5.523-4.477-10-10-10h-45v-50h45c5.523,0,10-4.477,10-10v-40v-40c0-5.523-4.477-10-10-10h-45V20h-20v70h-45
			c-5.523,0-10,4.477-10,10v40v40c0,5.523,4.477,10,10,10h45v50h-45c-5.523,0-10,4.477-10,10v40c0,5.523,4.477,10,10,10h45v20h-45
			c-5.523,0-10,4.477-10,10v40c0,5.523,4.477,10,10,10h45v30h-140v-20h45c5.523,0,10-4.477,10-10v-40v-40c0-5.523-4.477-10-10-10
			h-45v-20h45c5.523,0,10-4.477,10-10v-40c0-5.523-4.477-10-10-10h-45v-20h45c5.523,0,10-4.477,10-10v-40c0-5.523-4.477-10-10-10
			h-45V20h-20v110h-45c-5.523,0-10,4.477-10,10v40c0,5.523,4.477,10,10,10h45v20h-45c-5.523,0-10,4.477-10,10v40
			c0,5.523,4.477,10,10,10h45v20h-45c-5.523,0-10,4.477-10,10v40v40c0,5.523,4.477,10,10,10h45v20h-140v-50h45
			c5.523,0,10-4.477,10-10v-40v-40v-40c0-5.523-4.477-10-10-10h-45v-70h45c5.523,0,10-4.477,10-10v-40c0-5.523-4.477-10-10-10h-45
			V20h-20v70h-45c-5.523,0-10,4.477-10,10v40c0,5.523,4.477,10,10,10h45v70h-45c-5.523,0-10,4.477-10,10v40v40v40
			c0,5.523,4.477,10,10,10h45v50H10c-5.523,0-10,4.477-10,10v40c0,5.523,4.477,10,10,10h470c5.523,0,10-4.477,10-10v-40
			C490,414.477,485.523,410,480,410z M360.5,110h90v20h-90V110z M360.5,150h90v20h-90V150z M360.5,260h90v20h-90V260z M360.5,340h90
			v20h-90V340z M200.5,150h90v20h-90V150z M200.5,230h90v20h-90V230z M200.5,310h90v20h-90V310z M200.5,350h90v20h-90V350z
			 M40.5,110h90v20h-90V110z M130.5,300h-90v-20h90V300z M130.5,240v20h-90v-20H130.5z M40.5,320h90v20h-90V320z M470,450H20v-20
			h450V450z"/>
	</g>
</g>
<g>
</g>
<g>
</g>
<g>
</g>
<g>
</g>
<g>
</g>
<g>
</g>
<g>
</g>
<g>
</g>
<g>
</g>
<g>
</g>
<g>
</g>
<g>
</g>
<g>
</g>
<g>
</g>
<g>
</g>
</svg>
