<?xml version="1.0" encoding="iso-8859-1"?>
<!-- Generator: Adobe Illustrator 19.0.0, SVG Export Plug-In . SVG Version: 6.00 Build 0)  -->
<svg version="1.1" id="Layer_1" xmlns="http://www.w3.org/2000/svg" xmlns:xlink="http://www.w3.org/1999/xlink" x="0px" y="0px"
	 viewBox="0 0 512 512" style="enable-background:new 0 0 512 512;" xml:space="preserve">
<g>
	<path style="fill:#FF1A1A;" d="M167.184,355.077c0,5.886-4.771,10.658-10.657,10.658h-14.212c-5.886,0-10.658-4.772-10.658-10.658
		V305.34c0-5.886,4.772-10.658,10.658-10.658h14.212c5.886,0,10.657,4.772,10.657,10.658V355.077z"/>
	<path style="fill:#FF1A1A;" d="M131.657,355.077c0,5.886-4.771,10.658-10.657,10.658h-14.212c-5.886,0-10.658-4.772-10.658-10.658
		V305.34c0-5.886,4.772-10.658,10.658-10.658H121c5.886,0,10.657,4.772,10.657,10.658
		C131.657,305.34,131.657,355.077,131.657,355.077z"/>
</g>
<path style="fill:#10BAFC;" d="M238.237,355.077c0,5.886-4.771,10.658-10.657,10.658h-14.212c-5.886,0-10.658-4.772-10.658-10.658
	V305.34c0-5.886,4.772-10.658,10.658-10.658h14.212c5.886,0,10.657,4.772,10.657,10.658V355.077z"/>
<g>
	<path style="fill:#FF1A1A;" d="M202.71,355.077c0,5.886-4.771,10.658-10.657,10.658h-14.212c-5.886,0-10.658-4.772-10.658-10.658
		V305.34c0-5.886,4.772-10.658,10.658-10.658h14.212c5.886,0,10.657,4.772,10.657,10.658V355.077z"/>
	<path style="fill:#FF1A1A;" d="M171.362,179.534c0,5.886-4.771,10.658-10.657,10.658h-14.212c-5.886,0-10.658-4.772-10.658-10.658
		v-49.737c0-5.886,4.772-10.658,10.658-10.658h14.212c5.886,0,10.657,4.772,10.657,10.658L171.362,179.534L171.362,179.534z"/>
</g>
<path style="fill:#10BAFC;" d="M311.38,267.305c0,5.886-4.771,10.658-10.657,10.658h-14.212c-5.886,0-10.658-4.772-10.658-10.658
	v-49.737c0-5.886,4.772-10.658,10.658-10.658h14.212c5.886,0,10.657,4.772,10.657,10.658L311.38,267.305L311.38,267.305z"/>
<path style="fill:#FF1A1A;" d="M275.853,267.305c0,5.886-4.771,10.658-10.657,10.658h-14.212c-5.886,0-10.658-4.772-10.658-10.658
	v-49.737c0-5.886,4.772-10.658,10.658-10.658h14.212c5.886,0,10.657,4.772,10.657,10.658V267.305z"/>
<g>
	<path style="fill:#10BAFC;" d="M385.567,179.534c0,5.886-4.771,10.658-10.657,10.658h-14.212c-5.886,0-10.658-4.772-10.658-10.658
		v-49.737c0-5.886,4.772-10.658,10.658-10.658h14.212c5.886,0,10.657,4.772,10.657,10.658L385.567,179.534L385.567,179.534z"/>
	<path style="fill:#10BAFC;" d="M350.041,179.534c0,5.886-4.771,10.658-10.657,10.658h-14.212c-5.886,0-10.658-4.772-10.658-10.658
		v-49.737c0-5.886,4.772-10.658,10.658-10.658h14.212c5.886,0,10.657,4.772,10.657,10.658L350.041,179.534L350.041,179.534z"/>
</g>
<g>
	<path style="fill:#FF1A1A;" d="M256,92.807c0,5.886-4.771,10.658-10.657,10.658h-14.212c-5.886,0-10.658-4.772-10.658-10.658V43.07
		c0-5.886,4.772-10.658,10.658-10.658h14.212c5.886,0,10.657,4.772,10.657,10.658V92.807z"/>
	<path style="fill:#FF1A1A;" d="M220.473,92.807c0,5.886-4.771,10.658-10.657,10.658h-14.212c-5.886,0-10.658-4.772-10.658-10.658
		V43.07c0-5.886,4.772-10.658,10.658-10.658h14.212c5.886,0,10.657,4.772,10.657,10.658V92.807z"/>
</g>
<g>
	<path style="fill:#0068FF;" d="M501.551,469.137c0,5.771-4.679,10.449-10.449,10.449H20.898c-5.771,0-10.449-4.678-10.449-10.449
		v-55.293c0-5.77,4.678-10.449,10.449-10.449h470.204c5.77,0,10.449,4.679,10.449,10.449V469.137z"/>
	<path style="fill:#0068FF;" d="M40.751,403.396c-5.77,0-10.449-4.678-10.449-10.449l0.001-350.085
		c0-5.77,4.678-10.449,10.449-10.449h44.93c5.771,0,10.449,4.679,10.449,10.449v350.085c0,5.771-4.679,10.449-10.449,10.449H40.751z
		"/>
	<path style="fill:#0068FF;" d="M426.254,403.396c-5.77,0-10.449-4.678-10.449-10.449l0.001-350.085
		c0-5.77,4.678-10.449,10.449-10.449h44.93c5.771,0,10.449,4.679,10.449,10.449v350.085c0,5.771-4.679,10.449-10.449,10.449H426.254
		z"/>
</g>
<path d="M492.079,392.996c0-0.017,0.002-0.032,0.002-0.049V42.862c0-11.523-9.375-20.898-20.898-20.898h-44.93
	c-11.523,0-20.898,9.375-20.898,20.898v13.584H266.449V43.071c0-11.639-9.468-21.107-21.106-21.107h-14.212
	c-3.89,0-7.525,1.076-10.658,2.919c-3.133-1.843-6.768-2.919-10.657-2.919h-14.212c-11.639,0-21.107,9.469-21.107,21.107v13.375
	H106.58V42.862c0-11.523-9.375-20.898-20.898-20.898h-44.93c-11.523,0-20.898,9.375-20.898,20.898l-0.001,350.085
	c0,0.018,0.002,0.034,0.002,0.053C8.818,393.548,0,402.673,0,413.845v55.293c0,11.523,9.375,20.898,20.898,20.898h470.204
	c11.523,0,20.898-9.375,20.898-20.898v-55.293C512,402.651,503.148,393.511,492.079,392.996z M471.184,42.862l0.014,350.085
	c0,0-0.004,0-0.014,0h-44.931l0.001-350.085C426.255,42.862,471.184,42.862,471.184,42.862z M160.913,179.534
	c0,0.115-0.094,0.209-0.208,0.209h-14.212c-0.115,0-0.209-0.094-0.209-0.209v-49.737c0-0.115,0.094-0.209,0.209-0.209h14.212
	c0.114,0,0.208,0.094,0.208,0.209L160.913,179.534L160.913,179.534z M146.494,200.641h14.212c11.638,0,21.106-9.468,21.106-21.107
	v-14.42h122.254v14.42c0,11.639,9.468,21.107,21.107,21.107h14.212c3.89,0,7.524-1.076,10.657-2.919
	c3.133,1.843,6.768,2.919,10.658,2.919h14.212c11.638,0,21.106-9.468,21.106-21.107v-14.42h9.339v66.873h-83.527v-14.42
	c0-11.639-9.468-21.107-21.106-21.107h-14.212c-3.89,0-7.525,1.076-10.658,2.919c-3.133-1.843-6.768-2.919-10.657-2.919h-14.212
	c-11.639,0-21.107,9.469-21.107,21.107v14.42H106.58v-66.873h18.807v14.42C125.387,191.173,134.856,200.641,146.494,200.641z
	 M339.592,179.534c0,0.115-0.094,0.209-0.208,0.209h-14.212c-0.115,0-0.209-0.094-0.209-0.209v-49.737
	c0-0.115,0.094-0.209,0.209-0.209h14.212c0.114,0,0.208,0.094,0.208,0.209L339.592,179.534L339.592,179.534z M375.118,179.534
	c0,0.115-0.094,0.209-0.208,0.209h-14.212c-0.115,0-0.209-0.094-0.209-0.209v-49.737c0-0.115,0.094-0.209,0.209-0.209h14.212
	c0.114,0,0.208,0.094,0.208,0.209L375.118,179.534L375.118,179.534z M286.302,217.569c0-0.115,0.094-0.209,0.209-0.209h14.212
	c0.114,0,0.208,0.094,0.208,0.209v49.737c0,0.115-0.094,0.209-0.208,0.209h-14.212c-0.115,0-0.209-0.094-0.209-0.209V217.569z
	 M250.775,217.569c0-0.115,0.094-0.209,0.209-0.209h14.212c0.114,0,0.208,0.094,0.208,0.209v49.737c0,0.115-0.094,0.209-0.208,0.209
	h-14.212c-0.115,0-0.209-0.094-0.209-0.209V217.569z M121.208,355.077c0,0.115-0.094,0.209-0.208,0.209h-14.212
	c-0.115,0-0.209-0.094-0.209-0.209V305.34c0-0.115,0.094-0.209,0.209-0.209H121c0.114,0,0.208,0.094,0.208,0.209
	C121.208,305.34,121.208,355.077,121.208,355.077z M106.58,376.173c0.07,0.001,0.139,0.01,0.209,0.01H121
	c3.89,0,7.524-1.076,10.657-2.919c3.133,1.843,6.768,2.919,10.658,2.919h14.212c3.89,0,7.524-1.076,10.657-2.919
	c3.133,1.843,6.768,2.919,10.658,2.919h14.212c3.89,0,7.524-1.076,10.657-2.919c3.133,1.843,6.768,2.919,10.658,2.919h14.212
	c11.638,0,21.106-9.468,21.106-21.107V305.34c0-11.639-9.468-21.107-21.106-21.107h-14.212c-3.89,0-7.525,1.076-10.658,2.919
	c-3.133-1.843-6.768-2.919-10.657-2.919h-14.212c-3.89,0-7.525,1.076-10.658,2.919c-3.133-1.843-6.768-2.919-10.657-2.919h-14.212
	c-3.89,0-7.525,1.076-10.658,2.919c-3.133-1.843-6.768-2.919-10.657-2.919h-14.212c-0.071,0-0.139,0.009-0.209,0.01v-31.357h123.298
	v14.42c0,11.639,9.468,21.107,21.107,21.107h14.212c3.89,0,7.524-1.076,10.657-2.919c3.133,1.843,6.768,2.919,10.658,2.919h14.212
	c11.638,0,21.106-9.468,21.106-21.107v-14.42h83.527v66.872H308.68c-5.77,0-10.449,4.678-10.449,10.449
	c0,5.771,4.679,10.449,10.449,10.449h96.676v52.29H106.58V376.173z M156.735,355.077c0,0.115-0.094,0.209-0.208,0.209h-14.212
	c-0.115,0-0.209-0.094-0.209-0.209V305.34c0-0.115,0.094-0.209,0.209-0.209h14.212c0.114,0,0.208,0.094,0.208,0.209V355.077z
	 M192.261,355.077c0,0.115-0.094,0.209-0.208,0.209h-14.212c-0.115,0-0.209-0.094-0.209-0.209V305.34
	c0-0.115,0.094-0.209,0.209-0.209h14.212c0.114,0,0.208,0.094,0.208,0.209V355.077z M213.159,305.341
	c0-0.115,0.094-0.209,0.209-0.209h14.212c0.114,0,0.208,0.094,0.208,0.209v49.737c0,0.115-0.094,0.209-0.208,0.209h-14.212
	c-0.115,0-0.209-0.094-0.209-0.209V305.341z M231.131,42.862h14.212c0.114,0,0.208,0.094,0.208,0.209v49.737
	c0,0.115-0.094,0.209-0.208,0.209h-14.212c-0.115,0-0.209-0.094-0.209-0.209V43.071C230.922,42.955,231.016,42.862,231.131,42.862z
	 M195.396,43.071c0-0.115,0.094-0.209,0.209-0.209h14.212c0.114,0,0.208,0.094,0.208,0.209v49.737c0,0.115-0.094,0.209-0.208,0.209
	h-14.212c-0.115,0-0.209-0.094-0.209-0.209V43.071z M174.498,77.344v15.464c0,11.639,9.468,21.107,21.107,21.107h14.212
	c3.89,0,7.524-1.076,10.657-2.919c3.133,1.843,6.768,2.919,10.658,2.919h14.212c11.638,0,21.106-9.469,21.106-21.107V77.344h138.908
	v66.873h-9.34v-14.42c0-11.639-9.468-21.107-21.106-21.107h-14.212c-3.89,0-7.525,1.076-10.658,2.919
	c-3.133-1.843-6.768-2.919-10.657-2.919h-14.212c-11.639,0-21.107,9.469-21.107,21.107v14.42H181.811v-14.42
	c0-11.639-9.468-21.107-21.106-21.107h-14.212c-11.639,0-21.107,9.469-21.107,21.107v14.42H106.58V77.344
	C106.58,77.344,174.498,77.344,174.498,77.344z M40.752,42.862h44.93l0.014,350.085c0,0-0.004,0-0.014,0H40.751L40.752,42.862z
	 M491.102,469.137H20.898v-55.293h470.204l0.014,55.293C491.116,469.137,491.111,469.137,491.102,469.137z"/>
<path d="M274.92,319.76l-0.245-0.001c-0.016,0-0.029,0-0.045,0c-5.75,0-10.424,4.65-10.448,10.405
	c-0.024,5.771,4.635,10.469,10.405,10.493l0.245,0.001c0.016,0,0.029,0,0.045,0c5.75,0,10.424-4.65,10.448-10.405
	C285.349,324.482,280.691,319.784,274.92,319.76z"/>
<g>
</g>
<g>
</g>
<g>
</g>
<g>
</g>
<g>
</g>
<g>
</g>
<g>
</g>
<g>
</g>
<g>
</g>
<g>
</g>
<g>
</g>
<g>
</g>
<g>
</g>
<g>
</g>
<g>
</g>
</svg>
