<?xml version="1.0" encoding="iso-8859-1"?>
<!-- Generator: Adobe Illustrator 19.0.0, SVG Export Plug-In . SVG Version: 6.00 Build 0)  -->
<svg version="1.1" id="Layer_1" xmlns="http://www.w3.org/2000/svg" xmlns:xlink="http://www.w3.org/1999/xlink" x="0px" y="0px"
	 viewBox="0 0 512 512" style="enable-background:new 0 0 512 512;" xml:space="preserve">
<polygon style="fill:#31C0D8;" points="493.526,109.526 493.526,151.753 377.402,151.753 377.402,109.526 435.464,109.526 "/>
<g>
	<polygon style="fill:#FFD248;" points="493.526,341.773 493.526,384 435.464,384 377.402,384 377.402,341.773 	"/>
	<polygon style="fill:#FFD248;" points="134.598,341.773 134.598,384 76.536,384 18.474,384 18.474,341.773 	"/>
	<polygon style="fill:#FFD248;" points="134.598,257.32 134.598,299.546 18.474,299.546 18.474,257.32 76.536,257.32 	"/>
</g>
<rect x="197.938" y="257.32" style="fill:#31C0D8;" width="116.124" height="42.227"/>
<rect x="197.938" y="299.546" style="fill:#FFD248;" width="116.124" height="42.227"/>
<g>
	<polygon style="fill:#31C0D8;" points="134.598,109.526 134.598,151.753 76.536,151.753 18.474,151.753 18.474,109.526 
		76.536,109.526 	"/>
	<polygon style="fill:#31C0D8;" points="314.062,341.773 314.062,384 256,384 197.938,384 197.938,341.773 	"/>
	<rect x="18.474" y="299.546" style="fill:#31C0D8;" width="116.124" height="42.227"/>
</g>
<g>
	<polygon style="fill:#FFD248;" points="314.062,215.093 314.062,257.32 197.938,257.32 197.938,215.093 256,215.093 	"/>
	<polygon style="fill:#FFD248;" points="493.526,151.753 493.526,193.979 435.464,193.979 377.402,193.979 377.402,151.753 	"/>
</g>
<polygon style="fill:#31C0D8;" points="493.526,299.546 493.526,341.773 377.402,341.773 377.402,299.546 435.464,299.546 "/>
<path style="fill:#AFB6BB;" d="M504.082,468.454v10.557H7.918v-10.557V447.34c0-5.806,4.751-10.557,10.557-10.557h58.062H256
	h179.464h58.062c5.806,0,10.557,4.751,10.557,10.557V468.454z"/>
<path d="M493.526,428.866h-50.144v-36.948h58.062V291.629h-58.062v-89.732h58.062V101.608h-58.062V25.072h-15.835v76.536h-58.062
	v100.289h58.062v89.732h-58.062v100.289h58.062v36.948H263.918v-36.948h58.062V207.175h-58.062V25.072h-15.835v182.103h-58.062
	v184.742h58.062v36.948H84.454v-36.948h58.062V249.402H84.454V159.67h58.062v-58.062H84.454V25.072H68.619v76.536H10.557v58.062
	h58.062v89.732H10.557v142.515h58.062v36.948H18.474C8.288,428.866,0,437.154,0,447.34v39.588h512V447.34
	C512,437.154,503.712,428.866,493.526,428.866z M385.32,117.443h100.289v26.392H385.32V117.443z M385.32,186.062V159.67h100.289
	v26.392H385.32z M385.32,307.464h100.289v26.392H385.32V307.464z M385.32,376.082v-26.392h100.289v26.392H385.32z M205.856,223.01
	h100.289v26.392H205.856V223.01z M205.856,265.237h100.289v26.392H205.856V265.237z M205.856,307.464h100.289v26.392H205.856
	V307.464z M205.856,376.082v-26.392h100.289v26.392H205.856z M26.392,143.835v-26.392H126.68v26.392H26.392z M26.392,265.237H126.68
	v26.392H26.392V265.237z M26.392,307.464H126.68v26.392H26.392V307.464z M26.392,376.082v-26.392H126.68v26.392H26.392z
	 M496.165,471.093H15.835V447.34c0-1.43,1.209-2.639,2.639-2.639h475.052c1.43,0,2.639,1.209,2.639,2.639V471.093z"/>
<g>
</g>
<g>
</g>
<g>
</g>
<g>
</g>
<g>
</g>
<g>
</g>
<g>
</g>
<g>
</g>
<g>
</g>
<g>
</g>
<g>
</g>
<g>
</g>
<g>
</g>
<g>
</g>
<g>
</g>
</svg>
