<?xml version="1.0" encoding="UTF-8"?>
<svg viewBox="0 0 60 60" xmlns="http://www.w3.org/2000/svg">
 <path d="m57.26367,32.32522c0,2.30112-.18827,4.48195-.56482,6.5425-.37655,2.05009-.86292,3.81253-1.45912,5.28734-.37655.92045-.74786,1.60555-1.11395,2.05532s-.85246.67465-1.45912.67465c-.63804,0-1.17148-.18827-1.60032-.56482-.41838-.37655-.62758-.87338-.62758-1.4905 0-.13598.15689-.70079.47068-1.69446 .31379-.9832.60143-1.95072.86292-2.90255s.50206-2.11284.72171-3.48306 .32948-2.84502.32948-4.42442c0-1.89319-.16735-3.68179-.50206-5.36579-.33471-1.69446-.73217-3.27386-1.1924-4.73821s-.69034-2.25928-.69034-2.38479c0-.61712.20919-1.10872.62758-1.47481s.95183-.54913 1.60032-.54913c.61712,0 1.10872.22488 1.47481.67464 .36608.4393.73217,1.12441 1.09826,2.05532 .5962,1.45389 1.08257,3.2111 1.45912,5.27165s.56482,4.23092.56482,6.51112zm-22.40451,4.59701 4.26753-4.59701-2.58876-2.79272c-.62758-.66942-1.05119-1.12441-1.27084-1.36498-.20919-.25103-.37132-.49683-.48637-.7374-.11506-.25103-.17258-.53344-.17258-.84723 0-.75309.2458-1.37544.7374-1.86704s1.04596-.7374 1.66308-.7374c.5962,0 1.06688.08368 1.41205.25103s.70079.4916 1.06688.97274l2.6672,3.34185 2.6672-3.34185c.38701-.48114.74786-.80539 1.08257-.97274s.80016-.25103 1.39636-.25103c.61712,0 1.17148.24057 1.66308.72171s.73741,1.10872.73741,1.88273c0,.31379-.05753.5962-.17259.84723-.11506.24057-.28241.48637-.50206.7374-.20919.24057-.62758.69557-1.25515,1.36498l-2.58876,2.79272 4.26753,4.59701c.27195.29287.50206.61189.69033.95706 .19873.33471.2981.73217.2981,1.1924 0,.76355-.2458,1.38067-.7374,1.85135-.4916.46022-1.09826.69034-1.81998.69034-.47068,0-.85769-.09937-1.16102-.2981-.29287-.19873-.6485-.52821-1.06688-.98844l-3.49874-4.14201-3.49874,4.14201c-.36609.41839-.71125.7374-1.0355.95706s-.72171.32948-1.1924.32948c-.72171,0-1.32837-.23011-1.81997-.69034-.4916-.47068-.7374-1.0878-.7374-1.85135 0-.44976.08368-.83154.25103-1.14533 .17781-.31379.42361-.6485.7374-1.00412zm-7.79765-4.59701c0-1.47481.08891-2.96007.26672-4.4558s.41839-2.85548.72171-4.07925c.31379-1.22377.65896-2.30635 1.0355-3.24771 .40793-.97274.78447-1.66831 1.12964-2.08669 .34517-.42885.82631-.64327 1.44343-.64327 .65896,0 1.1924.18304 1.60032.54913s.61189.85769.61189,1.47481c0,.12552-.23011.92045-.69034,2.38479s-.85769,3.04375-1.1924,4.73821c-.33471,1.684-.50206,3.4726-.50206,5.36579 0,1.47481.10983,2.92347.32948,4.34597s.46022,2.60968.72171,3.5615 .54913,1.90888.86292,2.87117 .47068,1.53756.47068,1.72584c0,.61712-.20919,1.11395-.62758,1.4905s-.9466.56482-1.58463.56482c-.60666,0-1.08257-.21442-1.42774-.64327-.34517-.41839-.72694-1.11395-1.14533-2.08669-.29287-.76355-.55959-1.56371-.80016-2.40048-.23011-.82631-.44453-1.76768-.64327-2.8241-.18827-1.06688-.33471-2.15991-.43931-3.27909-.09414-1.12964-.1412-2.23836-.1412-3.32616z" fill="#333"/>
 <path d="m21.692 14.367c-11.643 3.2995-5.0392 27.413-16.025 30.638" fill="none" stroke="#333" stroke-linecap="round" stroke-linejoin="round" stroke-width="5"/>
 <path d="m6.6845 26.62h16.404" fill="none" stroke="#333" stroke-linecap="round" stroke-linejoin="round" stroke-width="5"/>
</svg>
