<?xml version="1.0" encoding="iso-8859-1"?>
<!-- Generator: Adobe Illustrator 19.0.0, SVG Export Plug-In . SVG Version: 6.00 Build 0)  -->
<svg version="1.1" id="Layer_1" xmlns="http://www.w3.org/2000/svg" xmlns:xlink="http://www.w3.org/1999/xlink" x="0px" y="0px"
	 viewBox="0 0 502 502" style="enable-background:new 0 0 502 502;" xml:space="preserve">
<g>
	<g>
		<g>
			<path d="M467.206,106.862H189.511c-14.808,0-28.019,9.4-32.873,23.391L98.972,296.466l-39.574-39.574
				c-13.566-13.564-35.64-13.564-49.207,0C3.62,263.465,0,272.202,0,281.496c0,9.295,3.62,18.033,10.191,24.604l78.846,78.846
				c6.574,6.572,15.312,10.192,24.604,10.192c2.609,0,5.227-0.297,7.788-0.885c11.754-2.7,21.132-11.114,25.084-22.508
				l67.755-195.295h252.938c19.185,0,34.794-15.608,34.794-34.794C502,122.47,486.392,106.862,467.206,106.862z M467.206,156.451
				H207.153c-4.26,0-8.052,2.699-9.448,6.723l-70.088,202.018c-1.681,4.844-5.668,8.422-10.662,9.569
				c-1.092,0.25-2.208,0.377-3.315,0.377c-3.95,0-7.666-1.54-10.461-4.335l-78.846-78.846C21.539,289.163,20,285.448,20,281.496
				c0-3.952,1.539-7.667,4.333-10.461c2.885-2.884,6.673-4.326,10.462-4.326c3.788,0,7.577,1.443,10.461,4.326l50.861,50.861
				c2.436,2.436,5.953,3.448,9.31,2.675c3.356-0.771,6.08-3.215,7.209-6.469l62.897-181.294c2.065-5.949,7.682-9.946,13.978-9.946
				h277.695c8.157,0,14.794,6.637,14.794,14.795C482,149.814,475.364,156.451,467.206,156.451z"/>
			<path d="M442.99,229.926c0-9.294-3.619-18.033-10.191-24.604c-6.572-6.572-15.31-10.191-24.604-10.191
				c-9.293,0-18.031,3.619-24.603,10.191l-40.605,40.605l-40.605-40.605c-6.572-6.572-15.31-10.191-24.604-10.191
				s-18.032,3.619-24.603,10.191c-6.572,6.572-10.191,15.31-10.191,24.604c0,9.293,3.619,18.032,10.191,24.604l40.605,40.604
				l-40.606,40.605c-6.572,6.573-10.191,15.311-10.191,24.604c0,9.294,3.619,18.033,10.191,24.604
				c6.573,6.572,15.31,10.191,24.604,10.191s18.032-3.619,24.604-10.191l40.605-40.605l40.605,40.605
				c6.573,6.572,15.311,10.191,24.604,10.191c9.294,0,18.032-3.619,24.603-10.191c6.572-6.572,10.191-15.31,10.191-24.604
				c0-9.293-3.619-18.032-10.191-24.604l-40.605-40.605l40.605-40.604C439.371,247.957,442.99,239.219,442.99,229.926z
				 M418.657,240.387l-47.677,47.676c-1.875,1.876-2.929,4.419-2.929,7.071c0,2.652,1.054,5.195,2.929,7.071l47.676,47.677
				c2.794,2.794,4.333,6.51,4.333,10.461c0,3.952-1.538,7.667-4.333,10.462c-2.794,2.794-6.509,4.333-10.461,4.333
				c-3.951,0-7.667-1.539-10.461-4.334l-47.676-47.677c-1.875-1.875-4.419-2.929-7.071-2.929c-2.652,0-5.195,1.054-7.071,2.929
				l-47.677,47.677c-2.794,2.795-6.51,4.334-10.461,4.334s-7.666-1.539-10.461-4.334c-2.794-2.794-4.333-6.509-4.333-10.461
				c0-3.951,1.539-7.667,4.333-10.461l47.677-47.677c1.875-1.876,2.929-4.419,2.929-7.071c0-2.652-1.054-5.195-2.929-7.071
				l-47.676-47.676c-2.794-2.794-4.333-6.51-4.333-10.461c0-3.952,1.538-7.667,4.333-10.461c2.794-2.795,6.51-4.334,10.461-4.334
				s7.666,1.539,10.461,4.334l47.677,47.676c3.905,3.904,10.237,3.904,14.142,0l47.676-47.676c2.794-2.795,6.51-4.334,10.461-4.334
				s7.666,1.539,10.461,4.334c2.794,2.794,4.333,6.509,4.333,10.461C422.99,233.877,421.451,237.593,418.657,240.387z"/>
			<path d="M465.223,131.657h-60.498c-5.523,0-10,4.478-10,10c0,5.522,4.477,10,10,10h60.498c5.523,0,10-4.478,10-10
				C475.223,136.136,470.746,131.657,465.223,131.657z"/>
			<path d="M372.988,131.657h-18.843c-5.523,0-10,4.478-10,10c0,5.522,4.477,10,10,10h18.843c5.523,0,10-4.478,10-10
				C382.988,136.136,378.511,131.657,372.988,131.657z"/>
		</g>
	</g>
</g>
<g>
</g>
<g>
</g>
<g>
</g>
<g>
</g>
<g>
</g>
<g>
</g>
<g>
</g>
<g>
</g>
<g>
</g>
<g>
</g>
<g>
</g>
<g>
</g>
<g>
</g>
<g>
</g>
<g>
</g>
</svg>
